<?xml version="1.0" standalone="no"?><!DOCTYPE svg PUBLIC "-//W3C//DTD SVG 1.1//EN" "http://www.w3.org/Graphics/SVG/1.1/DTD/svg11.dtd"><svg t="1781871078364" class="icon" viewBox="0 0 1302 1024" version="1.1" xmlns="http://www.w3.org/2000/svg" p-id="13896" xmlns:xlink="http://www.w3.org/1999/xlink" width="651" height="512"><path d="M679.786493 103.777416A408.196321 408.196321 0 1 0 1087.982813 511.973737 408.196321 408.196321 0 0 0 679.786493 103.777416zM175.537163 511.973737a504.249329 504.249329 0 1 1 504.24933 504.249329A504.172085 504.172085 0 0 1 175.537163 511.973737z" fill="#47506A" p-id="13897"></path><path d="M679.786493 0.154488a511.896493 511.896493 0 1 1-362.042986 149.930752A508.61362 508.61362 0 0 1 679.786493 0.154488z m0 1008.460037A496.524922 496.524922 0 1 0 183.261571 512.089603a497.06563 497.06563 0 0 0 496.524922 496.370434z m0-912.44565a415.920728 415.920728 0 1 1-294.106821 121.813908 413.255808 413.255808 0 0 1 294.106821-121.929774z m0 816.392641A400.471913 400.471913 0 1 0 279.31458 512.089603a400.935377 400.935377 0 0 0 400.471913 400.356047z" fill="#465069" p-id="13898"></path><path d="M670.710314 191.874285a48.007193 48.007193 0 0 1 55.306758-39.394479 386.220381 386.220381 0 0 1 241.42636 140.931817 48.007193 48.007193 0 1 1-75.737816 59.053097 290.090128 290.090128 0 0 0-181.523579-105.322298 48.007193 48.007193 0 0 1-39.471723-55.306759z" fill="#3673FE" p-id="13899"></path><path d="M717.867822 144.253312a56.27231 56.27231 0 0 1 9.307911 0.772441 392.284041 392.284041 0 0 1 246.215493 143.82847 55.731601 55.731601 0 1 1-87.903759 68.554118 281.091193 281.091193 0 0 0-176.695824-102.464268 55.731601 55.731601 0 0 1 9.114801-110.729383z m211.610147 219.180066a40.282786 40.282786 0 0 0 31.747315-65.078134 376.91247 376.91247 0 0 0-236.598605-138.073786 40.74625 40.74625 0 0 0-6.758857-0.57933 40.282786 40.282786 0 0 0-6.565746 80.024862 296.501386 296.501386 0 0 1 186.351333 108.141707 40.089676 40.089676 0 0 0 31.979048 15.410193z" fill="#3673FE" p-id="13900"></path><path d="M235.633054 509.424682a48.007193 48.007193 0 0 1-1.622125 67.897543 577.940178 577.940178 0 0 0-113.201194 138.768983c-21.512475 41.093849-18.19098 61.293174-13.865312 69.056204 3.862204 6.758857 15.757792 18.152358 51.367311 23.173223a446.779737 446.779737 0 0 0 142.515321-9.616887 1575.779154 1575.779154 0 0 0 431.060567-169.936968 48.007193 48.007193 0 0 1 46.578178 84.002933 1666.425078 1666.425078 0 0 1-458.868435 180.094564 537.61877 537.61877 0 0 1-174.803344 10.582438 156.921341 156.921341 0 0 1-121.85253-71.759747 167.967244 167.967244 0 0 1 12.745272-160.165592 667.23433 667.23433 0 0 1 132.048748-163.796063 48.007193 48.007193 0 0 1 67.897543 1.699369zM909.548997 139.773156a48.007193 48.007193 0 0 1 35.455031-57.933057 627.685363 627.685363 0 0 1 198.2083-20.46968 164.375394 164.375394 0 0 1 136.142684 73.381872 142.592565 142.592565 0 0 1 7.299565 112.00391 367.218338 367.218338 0 0 1-60.82971 111.42458 1187.511805 1187.511805 0 0 1-255.562026 234.358527 48.045815 48.045815 0 0 1-55.654357-78.286871 1095.629977 1095.629977 0 0 0 234.59026-214.004713 273.63714 273.63714 0 0 0 45.535382-81.10628 48.8955 48.8955 0 0 0 0.656575-37.810975c-4.132558-7.454053-18.38409-20.315192-61.21593-24.331884a533.293102 533.293102 0 0 0-166.654095 18.229602 48.007193 48.007193 0 0 1-57.971679-35.455031z" fill="#465069" p-id="13901"></path><path d="M194.848182 914.53124a367.141094 367.141094 0 0 1-51.096956-3.360117 163.255355 163.255355 0 0 1-127.452726-75.660573 173.335707 173.335707 0 0 1 12.629407-167.503779 669.435786 669.435786 0 0 1 133.593629-165.80441 55.731601 55.731601 0 0 1 76.857856 80.72006 572.957935 572.957935 0 0 0-111.694934 136.760637c-22.284916 42.484242-15.448815 58.898608-13.981178 61.795261s10.543816 14.328776 45.728493 19.311019a255.716514 255.716514 0 0 0 35.455031 2.240078 546.772193 546.772193 0 0 0 104.433991-11.663855 1564.849118 1564.849118 0 0 0 428.704623-169.125905 55.770223 55.770223 0 0 1 54.070853 97.520646A1673.994997 1673.994997 0 0 1 320.987759 900.665928a654.836656 654.836656 0 0 1-126.139577 13.865312z m6.025038-412.213013a40.128298 40.128298 0 0 0-27.769245 11.123147 654.566302 654.566302 0 0 0-130.542489 161.787718C11.084525 735.324983 6.758857 786.730916 29.738969 828.056497a146.763745 146.763745 0 0 0 116.175091 67.858921 351.692279 351.692279 0 0 0 48.934122 3.205629 639.580951 639.580951 0 0 0 123.281546-13.710824 1658.430316 1658.430316 0 0 0 456.628356-179.2835 40.282786 40.282786 0 1 0-39.085502-70.48522A1580.375177 1580.375177 0 0 1 302.371936 806.428155a561.989276 561.989276 0 0 1-107.485132 12.088698 271.203952 271.203952 0 0 1-37.617865-2.394566c-37.579243-5.368463-51.753531-17.727515-57.04475-27.035427s-9.964486-30.89763 13.788067-76.433013a587.866042 587.866042 0 0 1 114.707454-140.815951 40.282786 40.282786 0 0 0-27.807868-69.519669z m741.543132 106.905802a55.770223 55.770223 0 0 1-32.365268-101.18974 1097.483835 1097.483835 0 0 0 232.890889-212.421209 269.46596 269.46596 0 0 0 44.299478-78.788958 42.484242 42.484242 0 0 0 1.313149-31.863182c-1.467637-2.664921-11.123147-16.221256-55.190892-20.353814-8.110628-0.772441-16.916453-1.158661-26.224364-1.158661a605.670801 605.670801 0 0 0-137.880676 19.311019 55.692979 55.692979 0 0 1-67.240968-41.13247 55.731601 55.731601 0 0 1 41.13247-67.279591 719.103727 719.103727 0 0 1 164.10504-22.284916c12.745273 0 25.065703 0.540709 36.613692 1.660748a169.936968 169.936968 0 0 1 142.167723 77.244076 150.123862 150.123862 0 0 1 7.956139 118.067571 373.861329 373.861329 0 0 1-62.065615 113.857768 1190.06086 1190.06086 0 0 1-257.261396 235.980653 55.384003 55.384003 0 0 1-32.288023 10.312084z m164.761614-461.147135c9.771376 0 19.079287 0.424842 27.653379 1.235905 47.311997 4.441534 62.451836 19.619995 67.240969 28.271332a57.624081 57.624081 0 0 1 0 43.758769 284.335444 284.335444 0 0 1-46.771288 83.655335 1112.816784 1112.816784 0 0 1-236.289629 215.626839 40.282786 40.282786 0 1 0 46.694044 65.657464 1174.921021 1174.921021 0 0 0 253.901278-232.697779 358.837356 358.837356 0 0 0 59.593805-108.991392 133.361898 133.361898 0 0 0-6.642991-106.094738 153.638468 153.638468 0 0 0-130.117646-69.519669 376.564871 376.564871 0 0 0-35.146055-1.583504 703.886644 703.886644 0 0 0-160.51319 21.860074 40.321408 40.321408 0 0 0 9.423777 79.522776 40.514518 40.514518 0 0 0 9.4624-1.120039 620.772018 620.772018 0 0 1 141.472525-19.619995z" fill="#465069" p-id="13902"></path></svg>
